<svg width="13" height="13" viewBox="0 0 13 13" fill="none" xmlns="http://www.w3.org/2000/svg">
<path fill-rule="evenodd" clip-rule="evenodd" d="M3.92709 5.41667C3.92709 4.73429 4.19817 4.07986 4.68068 3.59734C5.1632 3.11482 5.81763 2.84375 6.50001 2.84375C7.18239 2.84375 7.83682 3.11482 8.31934 3.59734C8.80185 4.07986 9.07293 4.73429 9.07293 5.41667C9.07293 6.09905 8.80185 6.75348 8.31934 7.23599C7.83682 7.71851 7.18239 7.98958 6.50001 7.98958C5.81763 7.98958 5.1632 7.71851 4.68068 7.23599C4.19817 6.75348 3.92709 6.09905 3.92709 5.41667ZM6.50001 3.65625C6.03312 3.65625 5.58535 3.84172 5.25521 4.17186C4.92507 4.50201 4.73959 4.94978 4.73959 5.41667C4.73959 5.88356 4.92507 6.33133 5.25521 6.66147C5.58535 6.99161 6.03312 7.17708 6.50001 7.17708C6.9669 7.17708 7.41467 6.99161 7.74481 6.66147C8.07495 6.33133 8.26043 5.88356 8.26043 5.41667C8.26043 4.94978 8.07495 4.50201 7.74481 4.17186C7.41467 3.84172 6.9669 3.65625 6.50001 3.65625Z" fill="#737373"/>
<path fill-rule="evenodd" clip-rule="evenodd" d="M1.90883 4.79754C2.00142 3.67456 2.51291 2.62746 3.34177 1.86413C4.17062 1.1008 5.25621 0.677079 6.383 0.677082H6.617C7.74379 0.677079 8.82938 1.1008 9.65824 1.86413C10.4871 2.62746 10.9986 3.67456 11.0912 4.79754C11.1942 6.0484 10.8078 7.29043 10.0133 8.26204L7.41704 11.4367C7.30594 11.5726 7.16603 11.6821 7.00743 11.7573C6.84883 11.8325 6.67551 11.8715 6.5 11.8715C6.32449 11.8715 6.15117 11.8325 5.99257 11.7573C5.83397 11.6821 5.69407 11.5726 5.58296 11.4367L2.98675 8.26204C2.19219 7.29046 1.80575 6.04841 1.90883 4.79754ZM6.383 1.48958C5.46026 1.48972 4.57131 1.83681 3.89259 2.46194C3.21387 3.08707 2.79502 3.94455 2.71917 4.86417C2.63337 5.90517 2.95495 6.93885 3.61617 7.74746L6.21238 10.9227C6.24728 10.9654 6.29124 10.9998 6.34107 11.0235C6.39091 11.0471 6.44538 11.0594 6.50054 11.0594C6.5557 11.0594 6.61017 11.0471 6.66001 11.0235C6.70985 10.9998 6.75381 10.9654 6.78871 10.9227L9.38492 7.74746C10.0458 6.93869 10.3669 5.90503 10.2808 4.86417C10.205 3.94446 9.78604 3.0869 9.10721 2.46176C8.42838 1.83661 7.53929 1.48959 6.61646 1.48958H6.383Z" fill="#737373"/>
</svg>
